<?xml version="1.0" encoding="UTF-8"?>
<svg version="1.1" xmlns="http://www.w3.org/2000/svg" width="512" height="512">
<path d="M0 0 C5.9347643 3.39635008 11.49581732 7.01241859 16.625 11.5625 C17.285 12.1296875 17.945 12.696875 18.625 13.28125 C31.16714463 24.84353958 39.42213522 42.16967541 44.02832031 58.32177734 C44.93389778 61.49449276 45.77375331 63.78562996 47.625 66.5625 C48.39199219 66.06621094 49.15898437 65.56992188 49.94921875 65.05859375 C72.04391011 51.53489764 97.95181038 45.65758166 123.375 51.6875 C151.52485034 58.81531885 151.52485034 58.81531885 157.6640625 68.91796875 C158.21720096 70.18489863 158.74499944 71.46312475 159.25 72.75 C159.67756592 73.78036377 159.67756592 73.78036377 160.11376953 74.83154297 C170.92108084 101.79830012 171.24062784 127.72917935 160.3515625 154.703125 C157.66567614 160.95426264 154.18601728 166.77810645 150.625 172.5625 C151.8315625 172.69527344 153.038125 172.82804688 154.28125 172.96484375 C173.64114027 175.41034834 196.32061568 188.45711762 208.625 203.5625 C217.72772785 215.49178441 230.54017924 233.90959272 228.625 249.5625 C227.87034391 252.38970612 226.8014839 255.01162491 225.625 257.6875 C225.31175781 258.42033203 224.99851562 259.15316406 224.67578125 259.90820312 C219.99569965 270.59099808 214.32664833 280.74591371 206.625 289.5625 C206.05652344 290.22507812 205.48804688 290.88765625 204.90234375 291.5703125 C191.46106655 306.1245617 170.47511514 314.98004101 151.625 319.5625 C152.13289063 320.43648438 152.64078125 321.31046875 153.1640625 322.2109375 C161.03844748 336.1298394 165.93957145 350.78315707 168.625 366.5625 C168.79128906 367.44550781 168.95757812 368.32851563 169.12890625 369.23828125 C171.73818476 387.3384343 164.54135073 411.41600648 154.625 426.5625 C152.22017894 429.11409418 149.86455871 430.2756892 146.625 431.5625 C144.92537109 432.29146484 144.92537109 432.29146484 143.19140625 433.03515625 C133.28508083 437.11563683 123.14492368 439.64021107 112.625 441.5625 C111.65175781 441.75070312 110.67851562 441.93890625 109.67578125 442.1328125 C89.70265712 445.0079636 67.78095501 435.78153632 50.625 426.5625 C49.29465038 425.889899 47.96301839 425.21971306 46.625 424.5625 C46.356875 425.6040625 46.08875 426.645625 45.8125 427.71875 C38.94277892 453.26834256 25.20113916 476.29032555 1.97875977 490.01953125 C-20.45897982 502.85796519 -20.45897982 502.85796519 -31.375 501.5625 C-52.75685646 495.47726183 -73.601993 481.61488782 -85.375 462.6875 C-85.89118896 461.8625 -86.40737793 461.0375 -86.93920898 460.1875 C-93.70068165 449.09261996 -98.49902265 437.24419061 -101.375 424.5625 C-102.24898437 425.07039063 -103.12296875 425.57828125 -104.0234375 426.1015625 C-117.9423394 433.97594748 -132.59565707 438.87707145 -148.375 441.5625 C-149.25800781 441.72878906 -150.14101562 441.89507812 -151.05078125 442.06640625 C-169.1509343 444.67568476 -193.22850648 437.47885073 -208.375 427.5625 C-210.92659418 425.15767894 -212.0881892 422.80205871 -213.375 419.5625 C-213.86097656 418.42941406 -214.34695312 417.29632813 -214.84765625 416.12890625 C-218.92859769 406.22146197 -221.44836442 396.08245814 -223.375 385.5625 C-223.56320313 384.60085938 -223.75140625 383.63921875 -223.9453125 382.6484375 C-227.04375701 361.35487202 -216.96252291 337.46503874 -206.375 319.5625 C-207.89867187 319.10810547 -207.89867187 319.10810547 -209.453125 318.64453125 C-224.46209256 314.10996158 -237.34727201 308.30530201 -250.375 299.5625 C-251.31730469 298.94761719 -252.25960937 298.33273437 -253.23046875 297.69921875 C-266.95663747 287.85740302 -279.71564873 265.95735667 -283.375 249.5625 C-284.40491066 233.32914627 -272.49512698 214.66225818 -262.25 202.65625 C-261.63125 201.9653125 -261.0125 201.274375 -260.375 200.5625 C-259.859375 199.9540625 -259.34375 199.345625 -258.8125 198.71875 C-246.89969743 185.61466717 -226.49056649 176.07812987 -209.375 172.5625 C-208.055 172.5625 -206.735 172.5625 -205.375 172.5625 C-205.94347656 171.65113281 -206.51195312 170.73976562 -207.09765625 169.80078125 C-221.14031982 146.55006404 -227.59275427 120.92229819 -221.140625 94.32421875 C-214.16856544 67.35138119 -214.16856544 67.35138119 -205.9375 61.5625 C-203.90234375 60.56640625 -203.90234375 60.56640625 -201.375 59.5625 C-200.24191406 59.07652344 -199.10882813 58.59054688 -197.94140625 58.08984375 C-188.03396197 54.00890231 -177.89495814 51.48913558 -167.375 49.5625 C-166.41335937 49.37429687 -165.45171875 49.18609375 -164.4609375 48.9921875 C-143.16737202 45.89374299 -119.27753874 55.97497709 -101.375 66.5625 C-101.106875 65.5209375 -100.83875 64.479375 -100.5625 63.40625 C-93.69277892 37.85665744 -79.95113916 14.83467445 -56.72875977 1.10546875 C-34.96501777 -11.34731701 -22.07450474 -12.28154639 0 0 Z M-55.375 25.5625 C-56.52103105 26.63019304 -57.66964088 27.69512233 -58.8203125 28.7578125 C-73.65777879 42.68488336 -82.34555929 59.358962 -83.578125 79.95703125 C-83.68094259 87.45414733 -82.93286326 93.53773406 -80.375 100.5625 C-79.96725255 101.93401414 -79.57003027 103.30873982 -79.1875 104.6875 C-78.919375 105.63625 -78.65125 106.585 -78.375 107.5625 C-82.70920699 109.59415952 -86.66096212 110.08310632 -91.375 110.5625 C-91.52195313 110.005625 -91.66890625 109.44875 -91.8203125 108.875 C-93.62184601 102.74564459 -96.19352855 98.36450945 -100.375 93.5625 C-101.22191406 92.57443359 -101.22191406 92.57443359 -102.0859375 91.56640625 C-112.56833277 80.22153542 -129.32278215 71.32284464 -144.88110352 70.34130859 C-148.35703603 70.21861873 -151.83069906 70.19111683 -155.30859375 70.19189453 C-157.47477667 70.18755058 -159.63886747 70.15123486 -161.8046875 70.11328125 C-171.3381324 70.03739611 -179.31283421 71.3742604 -188.375 74.5625 C-189.11258545 74.8011377 -189.8501709 75.03977539 -190.61010742 75.28564453 C-194.9976357 77.15085695 -196.37749681 80.17237777 -198.1875 84.3125 C-198.97786859 86.37339284 -199.70346961 88.4598805 -200.375 90.5625 C-200.74238281 91.67882812 -201.10976562 92.79515625 -201.48828125 93.9453125 C-202.94216271 100.00615829 -202.74699142 106.2981361 -202.74560547 112.49609375 C-202.74994942 114.66227667 -202.78626514 116.82636747 -202.82421875 118.9921875 C-202.97631586 137.61033478 -196.66324278 153.47663219 -184.375 167.5625 C-183.80523437 168.24957031 -183.23546875 168.93664062 -182.6484375 169.64453125 C-176.96256682 175.97157458 -170.00548089 179.13307039 -162.375 182.5625 C-162.65982368 183.98055831 -162.95318144 185.39690379 -163.25 186.8125 C-163.41242188 187.60140625 -163.57484375 188.3903125 -163.7421875 189.203125 C-164.36650075 191.53081144 -165.22338542 193.45281952 -166.375 195.5625 C-167.47908203 195.03849609 -167.47908203 195.03849609 -168.60546875 194.50390625 C-169.58128906 194.04886719 -170.55710937 193.59382812 -171.5625 193.125 C-172.52542969 192.67253906 -173.48835938 192.22007812 -174.48046875 191.75390625 C-187.4533559 186.41418887 -203.82399716 189.48837413 -216.5234375 194.39208984 C-225.88485885 198.34626164 -233.20770603 203.31860899 -240.375 210.5625 C-241.50542428 211.5951999 -242.63981757 212.62356564 -243.77734375 213.6484375 C-250.28187255 219.63623508 -255.54661523 225.61708932 -259.75 233.4375 C-260.12519775 234.12650391 -260.50039551 234.81550781 -260.88696289 235.52539062 C-263.33932995 240.44551492 -263.9879403 244.07315856 -263.375 249.5625 C-262.33654889 252.25058871 -261.34270846 254.47015092 -259.9375 256.9375 C-259.39452271 257.91565674 -259.39452271 257.91565674 -258.84057617 258.91357422 C-255.40924219 264.87771729 -251.23493823 269.70256177 -246.375 274.5625 C-245.38264068 275.63284962 -244.39322172 276.70593043 -243.40625 277.78125 C-229.86176668 292.28574292 -212.98232088 300.56873627 -192.98046875 301.765625 C-185.48335267 301.86844259 -179.39976594 301.12036326 -172.375 298.5625 C-171.00348586 298.15475255 -169.62876018 297.75753027 -168.25 297.375 C-167.30125 297.106875 -166.3525 296.83875 -165.375 296.5625 C-163.56776446 300.53841818 -162.93915134 304.2475046 -162.375 308.5625 C-163.25800781 308.94019531 -164.14101562 309.31789063 -165.05078125 309.70703125 C-182.43012817 317.5182471 -192.26035351 331.19408325 -199.3671875 348.61328125 C-202.44939336 357.63291469 -202.81184471 366.09856857 -202.8125 375.5625 C-202.81456451 376.2997229 -202.81662903 377.0369458 -202.8187561 377.79650879 C-202.81326685 388.68421512 -202.25135286 398.61748742 -197.375 408.5625 C-196.941875 409.46097656 -196.50875 410.35945313 -196.0625 411.28515625 C-193.91264776 414.18646147 -192.03814663 414.95864963 -188.6875 416.25 C-187.69363281 416.64574219 -186.69976562 417.04148437 -185.67578125 417.44921875 C-177.11668036 420.33601609 -169.40452654 420.93510974 -160.44140625 420.93310547 C-158.27522333 420.93744942 -156.11113253 420.97376514 -153.9453125 421.01171875 C-135.34141548 421.16369944 -119.44006058 414.86274309 -105.375 402.5625 C-104.67632812 401.96953125 -103.97765625 401.3765625 -103.2578125 400.765625 C-97.59303421 395.59250671 -94.25184204 389.64563381 -91.375 382.5625 C-91.375 381.9025 -91.375 381.2425 -91.375 380.5625 C-89.76931334 380.84567926 -88.16547953 381.13937791 -86.5625 381.4375 C-85.22251953 381.68113281 -85.22251953 381.68113281 -83.85546875 381.9296875 C-81.375 382.5625 -81.375 382.5625 -78.375 384.5625 C-78.643125 385.34625 -78.91125 386.13 -79.1875 386.9375 C-79.579375 388.13375 -79.97125 389.33 -80.375 390.5625 C-80.63925781 391.25472656 -80.90351563 391.94695312 -81.17578125 392.66015625 C-86.50011811 407.77521682 -83.17384843 424.68972494 -76.69067383 438.94042969 C-72.96781875 446.5836532 -68.45496642 452.5851097 -62.375 458.5625 C-61.33562665 459.65478567 -60.29935406 460.75002737 -59.265625 461.84765625 C-53.16136726 468.25197522 -47.35010486 473.54063128 -39.375 477.5625 C-38.32892578 478.17544922 -38.32892578 478.17544922 -37.26171875 478.80078125 C-36.59785156 479.17589844 -35.93398437 479.55101562 -35.25 479.9375 C-34.69054687 480.25460937 -34.13109375 480.57171875 -33.5546875 480.8984375 C-27.83288046 482.64164036 -23.08039798 481.91878693 -17.84716797 479.17700195 C-16.93281982 478.65626099 -16.93281982 478.65626099 -16 478.125 C-15.02184326 477.58202271 -15.02184326 477.58202271 -14.02392578 477.02807617 C-8.05978271 473.59674219 -3.23493823 469.42243823 1.625 464.5625 C2.69534962 463.57014068 3.76843043 462.58072172 4.84375 461.59375 C19.34824292 448.04926668 27.63123627 431.16982088 28.828125 411.16796875 C28.93094259 403.67085267 28.18286326 397.58726594 25.625 390.5625 C25.21725255 389.19098586 24.82003027 387.81626018 24.4375 386.4375 C24.169375 385.48875 23.90125 384.54 23.625 383.5625 C27.95920699 381.53084048 31.91096212 381.04189368 36.625 380.5625 C36.77195312 381.119375 36.91890625 381.67625 37.0703125 382.25 C38.87184601 388.37935541 41.44352855 392.76049055 45.625 397.5625 C46.18960937 398.22121094 46.75421875 398.87992187 47.3359375 399.55859375 C57.81833277 410.90346458 74.57278215 419.80215536 90.13110352 420.78369141 C93.60703603 420.90638127 97.08069906 420.93388317 100.55859375 420.93310547 C102.72477667 420.93744942 104.88886747 420.97376514 107.0546875 421.01171875 C116.5881324 421.08760389 124.56283421 419.7507396 133.625 416.5625 C134.73137817 416.20454346 134.73137817 416.20454346 135.86010742 415.83935547 C140.2476357 413.97414305 141.62749681 410.95262223 143.4375 406.8125 C144.22786859 404.75160716 144.95346961 402.6651195 145.625 400.5625 C146.17414063 398.88414062 146.17414063 398.88414062 146.734375 397.171875 C148.34287214 390.45661919 148.06459091 383.43075205 148.0625 376.5625 C148.06410126 375.45367462 148.06410126 375.45367462 148.06573486 374.32244873 C148.04274314 363.33091393 147.44693195 353.62511062 142.625 343.5625 C142.15578125 342.55058594 141.6865625 341.53867187 141.203125 340.49609375 C138.06471127 334.29519566 134.14864611 328.82232834 129.625 323.5625 C128.76841797 322.52802734 128.76841797 322.52802734 127.89453125 321.47265625 C122.20544562 315.1527978 115.25332808 311.99096206 107.625 308.5625 C107.90859887 307.1233866 108.20221399 305.68624482 108.5 304.25 C108.66242188 303.44949219 108.82484375 302.64898437 108.9921875 301.82421875 C109.625 299.5625 109.625 299.5625 111.625 296.5625 C112.47771484 296.85253906 112.47771484 296.85253906 113.34765625 297.1484375 C114.96606921 297.69421282 116.58738574 298.23142553 118.2109375 298.76171875 C120.09149636 299.38552873 121.95583772 300.05830229 123.8125 300.75 C141.44436839 304.5076113 160.69290943 299.153414 175.625 289.5625 C179.27965794 286.83313735 182.43103649 283.81127412 185.625 280.5625 C186.71728567 279.52312665 187.81252737 278.48685406 188.91015625 277.453125 C195.31447522 271.34886726 200.60313128 265.53760486 204.625 257.5625 C205.23794922 256.51642578 205.23794922 256.51642578 205.86328125 255.44921875 C206.23839844 254.78535156 206.61351562 254.12148438 207 253.4375 C207.31710937 252.87804687 207.63421875 252.31859375 207.9609375 251.7421875 C209.70415795 246.02032274 208.98135115 241.2676035 206.23925781 236.03442383 C205.89217773 235.42493896 205.54509766 234.8154541 205.1875 234.1875 C204.82624023 233.53612061 204.46498047 232.88474121 204.09277344 232.21362305 C200.66620105 226.25395039 196.48854604 221.41070362 191.625 216.5625 C190.67221431 215.55421873 189.72180511 214.54368793 188.7734375 213.53125 C175.18245433 199.21328664 158.66960329 190.74439308 138.75390625 189.27734375 C131.14269091 189.10105175 124.7280628 189.85090247 117.625 192.5625 C116.42875 192.954375 115.2325 193.34625 114 193.75 C112.824375 194.1521875 112.824375 194.1521875 111.625 194.5625 C108.85013122 190.58116653 108.20436242 187.33802133 107.625 182.5625 C108.50800781 182.18480469 109.39101563 181.80710938 110.30078125 181.41796875 C127.68012817 173.6067529 137.51035351 159.93091675 144.6171875 142.51171875 C147.69939336 133.49208531 148.06184471 125.02643143 148.0625 115.5625 C148.06559677 114.45666565 148.06559677 114.45666565 148.0687561 113.32849121 C148.06326685 102.44078488 147.50135286 92.50751258 142.625 82.5625 C142.191875 81.66402344 141.75875 80.76554687 141.3125 79.83984375 C139.16264776 76.93853853 137.28814663 76.16635037 133.9375 74.875 C132.94363281 74.47925781 131.94976562 74.08351563 130.92578125 73.67578125 C122.36668036 70.78898391 114.65452654 70.18989026 105.69140625 70.19189453 C103.52522333 70.18755058 101.36113253 70.15123486 99.1953125 70.11328125 C80.59141548 69.96130056 64.69006058 76.26225691 50.625 88.5625 C49.57699219 89.45195312 49.57699219 89.45195312 48.5078125 90.359375 C42.84303421 95.53249329 39.50184204 101.47936619 36.625 108.5625 C36.625 109.2225 36.625 109.8825 36.625 110.5625 C35.02036551 110.25241116 33.41630769 109.93933713 31.8125 109.625 C30.91917969 109.45097656 30.02585937 109.27695313 29.10546875 109.09765625 C26.625 108.5625 26.625 108.5625 23.625 107.5625 C23.81835938 106.92183594 24.01171875 106.28117187 24.2109375 105.62109375 C24.75448865 103.81553523 25.2918926 102.0081185 25.82421875 100.19921875 C26.42608786 98.21745461 27.10169813 96.25785248 27.8125 94.3125 C30.82210663 80.42200788 27.8390165 66.06816233 22.375 53.1875 C21.98042603 52.24318115 21.98042603 52.24318115 21.57788086 51.27978516 C14.66644184 35.99260225 -0.82939018 20.72685618 -15.5 12.9375 C-16.17337402 12.57785156 -16.84674805 12.21820312 -17.54052734 11.84765625 C-32.06378471 4.84015753 -45.39375353 15.58125353 -55.375 25.5625 Z " fill="#000000" transform="translate(283.375,10.4375)"/>
<path d="M0 0 C4.44555972 0.85079937 6.61787339 3.2993671 9.5625 6.5625 C10.07973633 7.12880127 10.59697266 7.69510254 11.12988281 8.27856445 C27 26.11197027 27 26.11197027 27 32 C27.66 32 28.32 32 29 32 C29.23976563 31.3090625 29.47953125 30.618125 29.7265625 29.90625 C31.23167402 26.47127157 33.19568726 23.52953788 35.375 20.5 C36.02287476 19.59773682 36.02287476 19.59773682 36.68383789 18.67724609 C40.03546091 14.11199151 43.62788838 9.81405501 47.4375 5.625 C47.94522949 5.05974609 48.45295898 4.49449219 48.97607422 3.91210938 C50.25297786 2.54494555 51.62072438 1.26381114 53 0 C53.99 0 54.98 0 56 0 C55.1934271 33.6131458 55.1934271 33.6131458 51 42 C51.62261719 41.80664062 52.24523437 41.61328125 52.88671875 41.4140625 C59.79515234 39.46775345 66.55221428 38.4848695 73.6875 37.8125 C74.56559326 37.72887207 75.44368652 37.64524414 76.34838867 37.55908203 C81.91931618 37.07274367 87.408481 36.92635284 93 37 C92.14920063 41.44555972 89.7006329 43.61787339 86.4375 46.5625 C85.5880481 47.33835449 85.5880481 47.33835449 84.72143555 48.12988281 C66.88802973 64 66.88802973 64 61 64 C61 64.66 61 65.32 61 66 C61.6909375 66.23976563 62.381875 66.47953125 63.09375 66.7265625 C66.52872843 68.23167402 69.47046212 70.19568726 72.5 72.375 C73.10150879 72.8069165 73.70301758 73.23883301 74.32275391 73.68383789 C78.88800849 77.03546091 83.18594499 80.62788838 87.375 84.4375 C87.94025391 84.94522949 88.50550781 85.45295898 89.08789062 85.97607422 C90.45505445 87.25297786 91.73618886 88.62072438 93 90 C93 90.99 93 91.98 93 93 C59.3868542 92.1934271 59.3868542 92.1934271 51 88 C51.19335938 88.62261719 51.38671875 89.24523437 51.5859375 89.88671875 C53.53224655 96.79515234 54.5151305 103.55221428 55.1875 110.6875 C55.27112793 111.56559326 55.35475586 112.44368652 55.44091797 113.34838867 C55.92725633 118.91931618 56.07364716 124.408481 56 130 C51.55444028 129.14920063 49.38212661 126.7006329 46.4375 123.4375 C45.92026367 122.87119873 45.40302734 122.30489746 44.87011719 121.72143555 C29 103.88802973 29 103.88802973 29 98 C28.34 98 27.68 98 27 98 C26.76023438 98.6909375 26.52046875 99.381875 26.2734375 100.09375 C24.76832598 103.52872843 22.80431274 106.47046212 20.625 109.5 C20.1930835 110.10150879 19.76116699 110.70301758 19.31616211 111.32275391 C15.96453909 115.88800849 12.37211162 120.18594499 8.5625 124.375 C8.05477051 124.94025391 7.54704102 125.50550781 7.02392578 126.08789062 C5.74702214 127.45505445 4.37927562 128.73618886 3 130 C2.01 130 1.02 130 0 130 C0.8065729 96.3868542 0.8065729 96.3868542 5 88 C4.01229614 88.30417847 4.01229614 88.30417847 3.00463867 88.61450195 C-3.90493872 90.63514137 -10.51928088 91.66764911 -17.6875 92.1875 C-18.66783203 92.26935547 -19.64816406 92.35121094 -20.65820312 92.43554688 C-26.12314098 92.87113134 -31.51858592 93.08452952 -37 93 C-36.59077739 88.56150864 -33.55820116 86.25359728 -30.4375 83.4375 C-29.87119873 82.92026367 -29.30489746 82.40302734 -28.72143555 81.87011719 C-10.88802973 66 -10.88802973 66 -5 66 C-5 65.34 -5 64.68 -5 64 C-5.6909375 63.76023438 -6.381875 63.52046875 -7.09375 63.2734375 C-10.52872843 61.76832598 -13.47046212 59.80431274 -16.5 57.625 C-17.40226318 56.97712524 -17.40226318 56.97712524 -18.32275391 56.31616211 C-22.88800849 52.96453909 -27.18594499 49.37211162 -31.375 45.5625 C-32.22288086 44.80090576 -32.22288086 44.80090576 -33.08789062 44.02392578 C-34.45505445 42.74702214 -35.73618886 41.37927562 -37 40 C-37 39.01 -37 38.02 -37 37 C-3.3868542 37.8065729 -3.3868542 37.8065729 5 42 C4.80664062 41.37738281 4.61328125 40.75476563 4.4140625 40.11328125 C2.46775345 33.20484766 1.4848695 26.44778572 0.8125 19.3125 C0.72887207 18.43440674 0.64524414 17.55631348 0.55908203 16.65161133 C0.07274367 11.08068382 -0.07364716 5.591519 0 0 Z " fill="#000000" transform="translate(228,191)"/>
<path d="M0 0 C2.38917221 1.27083628 4.68584769 2.60151947 7 4 C20.97820524 12.43967109 35.37571288 15.23774989 51.50390625 12.37890625 C58.82133113 10.27619795 63.76658728 6.44486373 69 1 C73.02711049 2.48505159 74.24031415 4.6408081 76.1875 8.375 C76.69667969 9.33148438 77.20585937 10.28796875 77.73046875 11.2734375 C78.80111661 13.57285967 79.43709349 15.55169972 80 18 C67.73917552 26.88442992 56.19312746 35.16982398 40.4375 35.125 C39.07431641 35.12886719 39.07431641 35.12886719 37.68359375 35.1328125 C35.02854821 35.00141287 32.58839248 34.58976031 30 34 C30.15984375 34.5465625 30.3196875 35.093125 30.484375 35.65625 C33.4014579 48.91571771 29.09356766 61.89565684 22 73 C19.4169103 76.73268097 16.75131466 80.38977239 14 84 C7.19603711 82.66878987 2.48136179 79.12480746 -3 75 C-1.70757803 72.14436289 -0.33696572 70.20050476 1.875 68 C9.56611199 59.04588678 9.99243231 47.4425024 9.22753906 36.18798828 C8.13649313 25.69662175 3.99636586 13.2845232 -4 6 C-2.25 1.125 -2.25 1.125 0 0 Z " fill="#000000" transform="translate(342,338)"/>
<path d="M0 0 C-0.06960937 1.01707031 -0.06960937 1.01707031 -0.140625 2.0546875 C-0.56498369 12.99707931 2.92698183 20.7911687 10 29 C10.47824219 29.58394531 10.95648438 30.16789062 11.44921875 30.76953125 C20.70176011 41.09415548 34.51270504 46.55493268 48 48 C49 49 49 49 49.125 52 C49 55 49 55 48 56 C46.31372397 56.19820604 44.6258679 56.38298309 42.9375 56.5625 C28.27270569 58.93962995 15.87828232 67.55413041 6.625 78.9375 C1.04031882 86.9654792 -0.66430779 94.29372509 0 104 C-6.76215448 103.59060025 -12.67162748 102.43046191 -19 100 C-18.53121316 84.57691285 -15.86375624 69.87787051 -4.546875 58.54296875 C-2.41110338 56.62547568 -0.25027093 54.78082665 2 53 C0.87327788 49.61983365 0.10762071 49.11013182 -2.625 47 C-12.51056719 38.51400236 -17.16434621 26.79760629 -18.4609375 13.99609375 C-18.70988978 10.66215173 -18.8984389 7.34136004 -19 4 C-12.55907461 1.76882977 -6.8688456 -0.0568613 0 0 Z " fill="#000000" transform="translate(88,204)"/>
<path d="M0 0 C1.9375 0.75 1.9375 0.75 4 2 C4.79296875 3.85546875 4.79296875 3.85546875 5 6 C3.9609375 7.75390625 3.9609375 7.75390625 2.375 9.5625 C-7.54680826 21.97629732 -9.33339764 36.62753083 -8 52 C-6.42944771 60.94618393 -2.48465691 66.76717443 4 73 C2.51494841 77.02711049 0.3591919 78.24031415 -3.375 80.1875 C-4.33148438 80.69667969 -5.28796875 81.20585937 -6.2734375 81.73046875 C-8.57285967 82.80111661 -10.55169972 83.43709349 -13 84 C-22.07675093 71.47376579 -30.16608376 59.9387498 -30.125 43.875 C-30.12757813 42.86179687 -30.13015625 41.84859375 -30.1328125 40.8046875 C-30.01721552 38.36355131 -29.70201748 36.32891512 -29 34 C-29.72058594 34.15984375 -30.44117188 34.3196875 -31.18359375 34.484375 C-44.5204317 36.92607071 -56.77797462 33.16874426 -68 26 C-71.73268097 23.4169103 -75.38977239 20.75131466 -79 18 C-77.66878987 11.19603711 -74.12480746 6.48136179 -70 1 C-67.14436289 2.29242197 -65.20050476 3.66303428 -63 5.875 C-53.95502228 13.64415981 -42.41878786 13.86524644 -31.08447266 13.17578125 C-19.54940028 12.20304149 -9.04552873 7.1320515 0 0 Z " fill="#000000" transform="translate(169,338)"/>
<path d="M0 0 C6.76532673 1.78529455 11.65460165 4.49937851 17 9 C15.70757803 11.85563711 14.33696572 13.79949524 12.125 16 C4.35584019 25.04497772 4.13475356 36.58121214 4.82421875 47.91552734 C5.70858957 58.40269132 9.89977088 70.86290788 18 78 C17.25 80.4375 17.25 80.4375 16 83 C14.14453125 83.82421875 14.14453125 83.82421875 12 84 C10.24609375 82.9609375 10.24609375 82.9609375 8.4375 81.375 C-4.09624318 71.35732423 -18.53068549 69.88902529 -34 71 C-42.74630033 72.30919464 -48.93249324 76.76549764 -55 83 C-59.02711049 81.51494841 -60.24031415 79.3591919 -62.1875 75.625 C-62.95126953 74.19027344 -62.95126953 74.19027344 -63.73046875 72.7265625 C-64.80111661 70.42714033 -65.43709349 68.44830028 -66 66 C-53.73917552 57.11557008 -42.19312746 48.83017602 -26.4375 48.875 C-25.07431641 48.87113281 -25.07431641 48.87113281 -23.68359375 48.8671875 C-21.02854821 48.99858713 -18.58839248 49.41023969 -16 50 C-16.15984375 49.4534375 -16.3196875 48.906875 -16.484375 48.34375 C-19.4014579 35.08428229 -15.09356766 22.10434316 -8 11 C-5.4169103 7.26731903 -2.75131466 3.61022761 0 0 Z " fill="#000000" transform="translate(156,90)"/>
<path d="M0 0 C18.21398763 0.77110313 32.03661659 4.68760242 45 18 C45.66 18.99 46.32 19.98 47 21 C50.38016635 19.87327788 50.88986818 19.10762071 53 16.375 C61.48599764 6.48943281 73.20239371 1.83565379 86.00390625 0.5390625 C89.33784827 0.29011022 92.65863996 0.1015611 96 0 C98.43046191 6.32837252 99.59060025 12.23784552 100 19 C99.32195312 18.95359375 98.64390625 18.9071875 97.9453125 18.859375 C87.00292069 18.43501631 79.2088313 21.92698183 71 29 C70.41605469 29.47824219 69.83210938 29.95648438 69.23046875 30.44921875 C58.90584452 39.70176011 53.44506732 53.51270504 52 67 C51 68 51 68 48 68.125 C45 68 45 68 44 67 C43.80179396 65.31372397 43.61701691 63.6258679 43.4375 61.9375 C41.06037005 47.27270569 32.44586959 34.87828232 21.0625 25.625 C13.0345208 20.04031882 5.70627491 18.33569221 -4 19 C-3.59060025 12.23784552 -2.43046191 6.32837252 0 0 Z " fill="#000000" transform="translate(208,69)"/>
<path d="M0 0 C3 0.125 3 0.125 4 1.125 C4.19820604 2.81127603 4.38298309 4.4991321 4.5625 6.1875 C6.93962995 20.85229431 15.55413041 33.24671768 26.9375 42.5 C34.9654792 48.08468118 42.29372509 49.78930779 52 49.125 C51.59060025 55.88715448 50.43046191 61.79662748 48 68.125 C32.57691285 67.65621316 17.87787051 64.98875624 6.54296875 53.671875 C4.62547568 51.53610338 2.78082665 49.37527093 1 47.125 C-2.38016635 48.25172212 -2.88986818 49.01737929 -5 51.75 C-14.70076572 63.02714015 -28.00491045 66.7128546 -42.4375 67.875 C-44.29094212 67.97313653 -46.14501634 68.06243731 -48 68.125 C-50.43046191 61.79662748 -51.59060025 55.88715448 -52 49.125 C-51.32195312 49.17140625 -50.64390625 49.2178125 -49.9453125 49.265625 C-39.00292069 49.68998369 -31.2088313 46.19801817 -23 39.125 C-22.41605469 38.64675781 -21.83210938 38.16851562 -21.23046875 37.67578125 C-10.90584452 28.42323989 -5.44506732 14.61229496 -4 1.125 C-3 0.125 -3 0.125 0 0 Z " fill="#000000" transform="translate(256,374.875)"/>
<path d="M0 0 C6.76215448 0.40939975 12.67162748 1.56953809 19 4 C18.53121316 19.42308715 15.86375624 34.12212949 4.546875 45.45703125 C2.41110338 47.37452432 0.25027093 49.21917335 -2 51 C-0.87327788 54.38016635 -0.10762071 54.88986818 2.625 57 C12.51056719 65.48599764 17.16434621 77.20239371 18.4609375 90.00390625 C18.70988978 93.33784827 18.8984389 96.65863996 19 100 C12.67162748 102.43046191 6.76215448 103.59060025 0 104 C0.04640625 103.32195312 0.0928125 102.64390625 0.140625 101.9453125 C0.56498369 91.00292069 -2.92698183 83.2088313 -10 75 C-10.47824219 74.41605469 -10.95648438 73.83210938 -11.44921875 73.23046875 C-20.70176011 62.90584452 -34.51270504 57.44506732 -48 56 C-49 55 -49 55 -49.125 52 C-49 49 -49 49 -48 48 C-46.31372397 47.80179396 -44.6258679 47.61701691 -42.9375 47.4375 C-28.27270569 45.06037005 -15.87828232 36.44586959 -6.625 25.0625 C-1.04031882 17.0345208 0.66430779 9.70627491 0 0 Z " fill="#000000" transform="translate(424,204)"/>
<path d="M0 0 C10.84365466 11.10360528 16.28013986 25.07686714 16.16796875 40.421875 C15.99837971 43.02486957 15.57160203 45.45751419 15 48 C15.72058594 47.84015625 16.44117188 47.6803125 17.18359375 47.515625 C30.5204317 45.07392929 42.77797462 48.83125574 54 56 C57.73268097 58.5830897 61.38977239 61.24868534 65 64 C63.66878987 70.80396289 60.12480746 75.51863821 56 81 C53.11111598 79.68458222 50.9969482 78.22864115 48.6875 76.0625 C39.19918996 67.73229204 26.92329516 68.30844888 15 69 C5.23379896 70.22640082 -6.34843554 74.45081958 -13 82 C-15.4375 81.25 -15.4375 81.25 -18 80 C-18.82421875 78.14453125 -18.82421875 78.14453125 -19 76 C-17.9609375 74.24609375 -17.9609375 74.24609375 -16.375 72.4375 C-6.45319174 60.02370268 -4.66660236 45.37246917 -6 30 C-7.57055229 21.05381607 -11.51534309 15.23282557 -18 9 C-16.60802671 5.61743279 -15.1974504 4.16311318 -12.0625 2.3125 C-11.37285156 1.89613281 -10.68320312 1.47976562 -9.97265625 1.05078125 C-6.25304138 -0.93055816 -3.97846576 -1.37808302 0 0 Z " fill="#000000" transform="translate(357,92)"/>
<path d="M0 0 C1.35530796 4.57416436 2.12594251 8.50708324 2.0625 13.2890625 C2.05347656 14.1754541 2.04445313 15.0618457 2.03515625 15.97509766 C2.02355469 16.64331543 2.01195312 17.3115332 2 18 C0.62448975 18.06731323 0.62448975 18.06731323 -0.77880859 18.13598633 C-4.22737833 18.31069936 -7.67498904 18.49657615 -11.12255859 18.68969727 C-12.60605012 18.77057698 -14.08978176 18.8471835 -15.57373047 18.91918945 C-39.39238891 20.08362151 -49.91773606 30.49322961 -66 47 C-69.92760834 45.217015 -71.74711393 43.12368009 -74.3125 39.625 C-75.03050781 38.66851562 -75.74851562 37.71203125 -76.48828125 36.7265625 C-78 34 -78 34 -77.921875 31.88671875 C-74.5846375 25.05669455 -67.83176536 19.67822935 -62 15 C-61.45778809 14.56187988 -60.91557617 14.12375977 -60.35693359 13.67236328 C-44.40079004 0.92033362 -20.48892573 -5.46371353 0 0 Z " fill="#000000" transform="translate(348,367)"/>
<path d="M0 0 C3.05556242 1.214692 5.27826603 2.76860683 7.84765625 4.8203125 C8.73066406 5.50738281 9.61367188 6.19445312 10.5234375 6.90234375 C12.53515625 9.0078125 12.53515625 9.0078125 12.53515625 13.0078125 C11.08569336 14.86376953 11.08569336 14.86376953 9.0625 16.765625 C8.33039307 17.46888916 7.59828613 18.17215332 6.84399414 18.89672852 C6.06145264 19.63463623 5.27891113 20.37254395 4.47265625 21.1328125 C-6.57222013 31.87496481 -13.19872014 39.86505137 -14.09765625 55.7890625 C-14.13921844 56.48801636 -14.18078064 57.18697021 -14.22360229 57.90710449 C-14.35279945 60.10699959 -14.47151115 62.30730909 -14.58984375 64.5078125 C-14.67638582 66.0130611 -14.7636194 67.51827011 -14.8515625 69.0234375 C-15.06397175 72.68447325 -15.26699163 76.34595781 -15.46484375 80.0078125 C-17.03639347 80.02995767 -18.60803545 80.04560253 -20.1796875 80.05859375 C-21.05488037 80.06802002 -21.93007324 80.07744629 -22.83178711 80.0871582 C-26.69291958 79.97080512 -29.80923687 79.27065851 -33.46484375 78.0078125 C-37.5543885 65.73917825 -34.69655722 42.66705967 -29.46484375 31.0078125 C-24.79228171 23.24959628 -18.65931099 16.57026789 -12.46484375 10.0078125 C-11.60117187 9.05648438 -10.7375 8.10515625 -9.84765625 7.125 C-8.97882813 6.19945312 -8.11 5.27390625 -7.21484375 4.3203125 C-6.4259375 3.47082031 -5.63703125 2.62132812 -4.82421875 1.74609375 C-2.46484375 0.0078125 -2.46484375 0.0078125 0 0 Z " fill="#000000" transform="translate(400.46484375,269.9921875)"/>
<path d="M0 0 C1.47557373 0.01099731 1.47557373 0.01099731 2.98095703 0.0222168 C4.10026611 0.0363562 4.10026611 0.0363562 5.2421875 0.05078125 C5.30950073 1.4262915 5.30950073 1.4262915 5.37817383 2.82958984 C5.55288686 6.27815958 5.73876365 9.72577029 5.93188477 13.17333984 C6.01276448 14.65683137 6.089371 16.14056301 6.16137695 17.62451172 C7.32580901 41.44317016 17.73541711 51.96851731 34.2421875 68.05078125 C32.4592025 71.97838959 30.36586759 73.79789518 26.8671875 76.36328125 C25.91070312 77.08128906 24.95421875 77.79929687 23.96875 78.5390625 C21.2421875 80.05078125 21.2421875 80.05078125 19.29077148 79.83496094 C7.88489898 75.46889462 -4.6013085 57.87025504 -9.7578125 47.05078125 C-11.61614203 41.82928603 -12.25675715 36.54550064 -12.7578125 31.05078125 C-12.88285156 29.91640625 -13.00789063 28.78203125 -13.13671875 27.61328125 C-14.94180455 8.6027574 -14.94180455 8.6027574 -12.7578125 2.05078125 C-8.39278399 0.24783469 -4.71196726 -0.04564499 0 0 Z " fill="#000000" transform="translate(379.7578125,161.94921875)"/>
<path d="M0 0 C1.57021405 -0.02726198 3.14056818 -0.04651369 4.7109375 -0.0625 C6.02263916 -0.07990234 6.02263916 -0.07990234 7.36083984 -0.09765625 C11.13069429 0.04183883 14.39092206 0.93064357 18 2 C21.65653665 14.63699066 19.54193938 37.039114 14 49 C9.43886735 56.21626184 3.78028397 62.55001407 -1.99609375 68.80859375 C-3.67232772 70.64166832 -5.25767339 72.50228767 -6.8125 74.4375 C-10.36680614 78.60111576 -10.36680614 78.60111576 -13 80 C-17.38713305 79.62630894 -19.9162484 77.8994698 -23.3125 75.1875 C-24.19550781 74.50042969 -25.07851562 73.81335938 -25.98828125 73.10546875 C-28 71 -28 71 -28 67 C-26.55053711 65.14404297 -26.55053711 65.14404297 -24.52734375 63.2421875 C-23.79523682 62.53892334 -23.06312988 61.83565918 -22.30883789 61.11108398 C-21.52629639 60.37317627 -20.74375488 59.63526855 -19.9375 58.875 C-8.89262362 48.13284769 -2.26612361 40.14276113 -1.3671875 24.21875 C-1.32562531 23.51979614 -1.28406311 22.82084229 -1.24124146 22.10070801 C-1.1120443 19.90081291 -0.9933326 17.70050341 -0.875 15.5 C-0.78845793 13.9947514 -0.70122435 12.48954239 -0.61328125 10.984375 C-0.400872 7.32333925 -0.19785212 3.66185469 0 0 Z " fill="#000000" transform="translate(127,162)"/>
<path d="M0 0 C1.04542969 0.12503906 2.09085938 0.25007813 3.16796875 0.37890625 C16.51453761 2.94322432 28.06262946 15.46790609 37 25 C37.93457031 25.81597656 38.86914062 26.63195312 39.83203125 27.47265625 C42 30 42 30 42.05078125 32.48046875 C40.79170878 35.49943435 39.22901978 37.75586577 37.1875 40.3125 C36.15689453 41.63701172 36.15689453 41.63701172 35.10546875 42.98828125 C33 45 33 45 29 45 C27.14404297 43.55053711 27.14404297 43.55053711 25.2421875 41.52734375 C24.53892334 40.79523682 23.83565918 40.06312988 23.11108398 39.30883789 C22.37317627 38.52629639 21.63526855 37.74375488 20.875 36.9375 C10.13284769 25.89262362 2.14276113 19.26612361 -13.78125 18.3671875 C-14.82968079 18.30484421 -14.82968079 18.30484421 -15.89929199 18.24124146 C-18.09918709 18.1120443 -20.29949659 17.9933326 -22.5 17.875 C-24.0052486 17.78845793 -25.51045761 17.70122435 -27.015625 17.61328125 C-30.67666075 17.400872 -34.33814531 17.19785212 -38 17 C-38.02726198 15.42978595 -38.04651369 13.85943182 -38.0625 12.2890625 C-38.07410156 11.41459473 -38.08570313 10.54012695 -38.09765625 9.63916016 C-37.95816117 5.86930571 -37.06935643 2.60907794 -36 -1 C-24.79964657 -4.24084301 -11.37810873 -1.46386488 0 0 Z " fill="#000000" transform="translate(200,368)"/>
<path d="M0 0 C2.37919625 0.84714017 3.56910821 1.8284978 5.36547852 3.59228516 C6.27765137 4.48705566 6.27765137 4.48705566 7.20825195 5.39990234 C8.16586426 6.3729834 8.16586426 6.3729834 9.14282227 7.36572266 C9.80314453 8.03506836 10.4634668 8.70441406 11.14379883 9.39404297 C20.11430297 18.6770175 29.36904906 28.50257141 31.08032227 41.74072266 C31.17603516 42.47484375 31.27174805 43.20896484 31.37036133 43.96533203 C34.54497203 69.22289306 34.54497203 69.22289306 32.08032227 77.74072266 C27.50615791 79.09603061 23.57323903 79.86666517 18.79125977 79.80322266 C17.90486816 79.79419922 17.01847656 79.78517578 16.10522461 79.77587891 C15.43700684 79.76427734 14.76878906 79.75267578 14.08032227 79.74072266 C14.01300903 78.35735718 14.01300903 78.35735718 13.94433594 76.94604492 C13.76983226 73.48443967 13.58394752 70.02381851 13.390625 66.56323242 C13.30964493 65.07290934 13.23304741 63.58234076 13.16113281 62.09155273 C12.28289049 44.02398827 6.8948459 32.8043407 -5.91967773 19.74072266 C-8.05185546 17.90562084 -10.19951274 16.11398258 -12.41577148 14.38134766 C-13.91967773 12.74072266 -13.91967773 12.74072266 -13.91967773 8.74072266 C-11.80249023 6.63525391 -11.80249023 6.63525391 -9.04467773 4.55322266 C-8.13975586 3.85841797 -7.23483398 3.16361328 -6.30249023 2.44775391 C-2.42796787 -0.32792851 -2.42796787 -0.32792851 0 0 Z " fill="#000000" transform="translate(112.919677734375,270.25927734375)"/>
<path d="M0 0 C1.13199353 0.9080162 2.25532363 1.82683826 3.375 2.75 C4.00148438 3.26046875 4.62796875 3.7709375 5.2734375 4.296875 C7 6 7 6 7.9765625 8.078125 C9.28819868 10.54119752 10.50235921 10.8272726 13 12 C14.65971443 13.4186998 16.28226224 14.88149823 17.875 16.375 C30.2971814 27.67283797 42.85338312 28.21104706 59.125 28.0625 C60.08148438 28.05798828 61.03796875 28.05347656 62.0234375 28.04882812 C64.34902758 28.03720017 66.6744776 28.02086102 69 28 C69.22262303 34.7281627 68.95021536 40.53991163 67 47 C55.79964657 50.24084301 42.37810873 47.46386488 31 46 C29.95457031 45.87496094 28.90914063 45.74992187 27.83203125 45.62109375 C15.14055616 43.1826409 4.38521398 31.71153016 -4.5625 23.0625 C-5.22411133 22.43633789 -5.88572266 21.81017578 -6.56738281 21.16503906 C-10.95674718 16.76147729 -10.95674718 16.76147729 -11.1484375 13.38671875 C-9.75740789 10.49583749 -8.10917752 8.22229762 -6.0625 5.75 C-5.35222656 4.87859375 -4.64195312 4.0071875 -3.91015625 3.109375 C-2 1 -2 1 0 0 Z " fill="#000000" transform="translate(281,98)"/>
<path d="M0 0 C3.98514852 2.10288979 6.29396781 4.25426737 8.875 7.9375 C9.49117188 8.79214844 10.10734375 9.64679688 10.7421875 10.52734375 C12 13 12 13 12.0078125 15.00390625 C10.53467516 17.92163176 8.37560607 19.77500872 6 22 C5.29101562 22.75539063 4.58203125 23.51078125 3.8515625 24.2890625 C-5.48827802 34.08770221 -16.16336054 44.01731081 -30 46 C-31.00804687 46.17015625 -32.01609375 46.3403125 -33.0546875 46.515625 C-38.40411902 47.17238689 -43.74223371 47.40316478 -49.125 47.625 C-50.19621094 47.6765625 -51.26742187 47.728125 -52.37109375 47.78125 C-53.40621094 47.82507813 -54.44132813 47.86890625 -55.5078125 47.9140625 C-56.44254395 47.9548291 -57.37727539 47.9955957 -58.34033203 48.03759766 C-61.01881295 47.99973406 -63.3970062 47.60993855 -66 47 C-67.95021536 40.53991163 -68.22262303 34.7281627 -68 28 C-67.44763672 28.01047363 -66.89527344 28.02094727 -66.32617188 28.03173828 C-41.25785894 29.04620629 -41.25785894 29.04620629 -19.375 18.5625 C-18.45460937 17.80066406 -17.53421875 17.03882812 -16.5859375 16.25390625 C-13.99804665 14.06268621 -13.99804665 14.06268621 -11.7890625 11.71484375 C-10 10 -10 10 -8 10 C-7.79375 9.46375 -7.5875 8.9275 -7.375 8.375 C-5.42003056 4.9982346 -2.81776305 2.69525161 0 0 Z " fill="#000000" transform="translate(230,98)"/>
<path d="M0 0 C-1.93174271 16.93582651 -15.21927169 35.39758587 -28 46 C-38.30330774 53.87955051 -50.9183244 62.38719068 -64 64 C-63.81046861 61.33159759 -63.58387573 58.67603098 -63.30078125 56.015625 C-62.96344191 53.09823357 -62.96344191 53.09823357 -62.98046875 50.546875 C-62.77700053 47.84027445 -62.43116025 46.32939596 -61 44 C-57.69330742 41.65273914 -54.28261588 39.81533637 -50.68359375 37.96484375 C-38.01190129 31.41883445 -25.8619935 18.39093032 -21.2265625 4.71875 C-19.51260544 2.31702674 -17.53855331 2.11180516 -14.73632812 1.58203125 C-14.06021484 1.47246094 -13.38410156 1.36289063 -12.6875 1.25 C-11.69073242 1.06244141 -11.69073242 1.06244141 -10.67382812 0.87109375 C-7.0820739 0.22450694 -3.64741325 -0.14109916 0 0 Z " fill="#000000" transform="translate(210,146)"/>
<path d="M0 0 C16.93582651 1.93174271 35.39758587 15.21927169 46 28 C53.87955051 38.30330774 62.38719068 50.9183244 64 64 C61.61654121 63.80729482 59.2434446 63.58176426 56.8671875 63.3125 C55.02340592 63.11154288 53.1729985 62.96142267 51.3203125 62.875 C48.54126459 62.60469747 46.51479092 62.22886816 44 61 C42.09934906 58.50793511 40.87142664 55.98338772 39.546875 53.14453125 C32.45702394 38.73208149 20.58612055 29.74790811 7 22 C5.87271484 21.61908203 5.87271484 21.61908203 4.72265625 21.23046875 C2.31902542 19.51358959 2.1124875 17.54216251 1.58203125 14.73632812 C1.47246094 14.06021484 1.36289063 13.38410156 1.25 12.6875 C1.12496094 12.02298828 0.99992188 11.35847656 0.87109375 10.67382812 C0.22450694 7.0820739 -0.14109916 3.64741325 0 0 Z " fill="#000000" transform="translate(146,302)"/>
<path d="M0 0 C3.67582738 0.2610868 7.33464048 0.62115147 11 1 C11.83273437 1.04125 12.66546875 1.0825 13.5234375 1.125 C16.0524652 1.4012078 17.7662886 1.76639213 20 3 C21.82604052 5.50117708 23.08792302 8.05980789 24.41796875 10.85546875 C31.26236627 24.45976506 44.56103001 37.7967803 59.27734375 42.76953125 C61.68097458 44.48641041 61.8875125 46.45783749 62.41796875 49.26367188 C62.52753906 49.93978516 62.63710938 50.61589844 62.75 51.3125 C62.87503906 51.97701172 63.00007813 52.64152344 63.12890625 53.32617188 C63.77549306 56.9179261 64.14109916 60.35258675 64 64 C47.06417349 62.06825729 28.60241413 48.78072831 18 36 C10.12044949 25.69669226 1.61280932 13.0816756 0 0 Z " fill="#000000" transform="translate(302,146)"/>
<path d="M0 0 C-0.19270518 2.38345879 -0.41823574 4.7565554 -0.6875 7.1328125 C-0.88845712 8.97659408 -1.03857733 10.8270015 -1.125 12.6796875 C-1.39530253 15.45873541 -1.77113184 17.48520908 -3 20 C-5.49206489 21.90065094 -8.01661228 23.12857336 -10.85546875 24.453125 C-25.26791851 31.54297606 -34.25209189 43.41387945 -42 57 C-42.25394531 57.75152344 -42.50789063 58.50304687 -42.76953125 59.27734375 C-44.48641041 61.68097458 -46.45783749 61.8875125 -49.26367188 62.41796875 C-49.93978516 62.52753906 -50.61589844 62.63710938 -51.3125 62.75 C-51.97701172 62.87503906 -52.64152344 63.00007813 -53.32617188 63.12890625 C-56.9179261 63.77549306 -60.35258675 64.14109916 -64 64 C-62.06825729 47.06417349 -48.78072831 28.60241413 -36 18 C-26.67069947 10.86533057 -12.16753553 0 0 0 Z " fill="#000000" transform="translate(366,302)"/>
<path d="M0 0 C4.27903682 1.52471427 6.33414352 4.7166881 8.8125 8.3125 C9.23208984 8.88162109 9.65167969 9.45074219 10.08398438 10.03710938 C11.89235918 12.63199316 13.03766141 14.33532695 12.85546875 17.55078125 C12.57316406 18.35902344 12.29085938 19.16726562 12 20 C11.7628125 20.94617188 11.525625 21.89234375 11.28125 22.8671875 C11.0234375 23.85976562 10.765625 24.85234375 10.5 25.875 C7.01165698 39.86240471 6.22996568 56.0993511 12.1640625 69.66015625 C13.23621635 72.66118502 13.04772955 73.99347173 12 77 C10.0390625 80.078125 10.0390625 80.078125 7.625 83.25 C7.22539062 83.79140625 6.82578125 84.3328125 6.4140625 84.890625 C4.34651829 87.6110779 3.31276884 88.89574372 0 90 C-11.78701786 64.14140184 -14.99259759 38.88785141 -5.17431641 11.71484375 C-3.61443872 7.7287911 -1.88113624 3.84630948 0 0 Z " fill="#000000" transform="translate(365,211)"/>
<path d="M0 0 C1.21236328 0.42345703 1.21236328 0.42345703 2.44921875 0.85546875 C3.39539063 1.09265625 4.3415625 1.32984375 5.31640625 1.57421875 C6.30898437 1.83203125 7.3015625 2.08984375 8.32421875 2.35546875 C22.38264902 5.85726487 34.53971047 5.2213662 48.48046875 1.828125 C49.1755957 1.66425293 49.87072266 1.50038086 50.58691406 1.33154297 C52.59003032 0.85066496 52.59003032 0.85066496 55.02734375 -0.0703125 C59.05394297 -0.19370828 61.58984519 2.24440916 64.69921875 4.60546875 C65.33601563 5.06179687 65.9728125 5.518125 66.62890625 5.98828125 C71.30847627 9.43324131 71.30847627 9.43324131 72.44921875 12.85546875 C47.96204634 24.01735528 22.89218785 28.1097115 -3.04003906 18.97900391 C-7.95433197 17.10647887 -12.7662729 15.0363714 -17.55078125 12.85546875 C-16.02606698 8.57643193 -12.83409315 6.52132523 -9.23828125 4.04296875 C-8.66916016 3.62337891 -8.10003906 3.20378906 -7.51367188 2.77148438 C-4.91878809 0.96310957 -3.2154543 -0.18219266 0 0 Z " fill="#000000" transform="translate(228.55078125,134.14453125)"/>
<path d="M0 0 C-1.52471427 4.27903682 -4.7166881 6.33414352 -8.3125 8.8125 C-8.88162109 9.23208984 -9.45074219 9.65167969 -10.03710938 10.08398438 C-12.63199316 11.89235918 -14.33532695 13.03766141 -17.55078125 12.85546875 C-18.35902344 12.57316406 -19.16726563 12.29085938 -20 12 C-20.94617188 11.7628125 -21.89234375 11.525625 -22.8671875 11.28125 C-23.85976563 11.0234375 -24.85234375 10.765625 -25.875 10.5 C-39.86240471 7.01165698 -56.0993511 6.22996568 -69.66015625 12.1640625 C-72.66118502 13.23621635 -73.99347173 13.04772955 -77 12 C-80.078125 10.0390625 -80.078125 10.0390625 -83.25 7.625 C-83.79140625 7.22539062 -84.3328125 6.82578125 -84.890625 6.4140625 C-87.6110779 4.34651829 -88.89574372 3.31276884 -90 0 C-59.06170516 -14.10247498 -30.93829484 -14.10247498 0 0 Z " fill="#000000" transform="translate(301,365)"/>
<path d="M0 0 C0.66 0 1.32 0 2 0 C13.16188653 24.48717241 17.25424275 49.5570309 8.12353516 75.48925781 C6.25101012 80.40355072 4.18090265 85.21549165 2 90 C-2.27903682 88.47528573 -4.33414352 85.2833119 -6.8125 81.6875 C-7.44188477 80.83381836 -7.44188477 80.83381836 -8.08398438 79.96289062 C-9.89235918 77.36800684 -11.03766141 75.66467305 -10.85546875 72.44921875 C-10.57316406 71.64097656 -10.29085937 70.83273437 -10 70 C-9.7628125 69.05382812 -9.525625 68.10765625 -9.28125 67.1328125 C-9.0234375 66.14023437 -8.765625 65.14765625 -8.5 64.125 C-5.01165698 50.13759529 -4.22996568 33.9006489 -10.1640625 20.33984375 C-11.23750833 17.33519865 -11.05746497 16.00830552 -10 13 C-8.55568724 10.81131066 -7.11958525 8.7957919 -5.5 6.75 C-5.08363281 6.20859375 -4.66726562 5.6671875 -4.23828125 5.109375 C-1.28039148 1.28039148 -1.28039148 1.28039148 0 0 Z " fill="#000000" transform="translate(145,211)"/>
<path d="M0 0 C21.89393211 -0.4364239 41.1897368 7.83463403 57.41796875 22.30078125 C59 24 59 24 59 26 C57.35546875 27.65625 57.35546875 27.65625 55.1875 29.5 C54.47980469 30.1084375 53.77210938 30.716875 53.04296875 31.34375 C51 33 51 33 48 35 C44.76860795 34.64095644 42.60547758 33.2145377 39.9375 31.4375 C27.99485067 24.13431415 14.81801232 19.1639954 1 17 C0.1679418 11.27959989 -0.12036664 5.77759884 0 0 Z " fill="#000000" transform="translate(261,160)"/>
<path d="M0 0 C-0.33 5.61 -0.66 11.22 -1 17 C-2.876875 17.309375 -4.75375 17.61875 -6.6875 17.9375 C-13.39826705 19.37259275 -19.50541944 21.62287172 -25.8125 24.3125 C-26.68285889 24.67915771 -27.55321777 25.04581543 -28.44995117 25.42358398 C-33.74917612 27.74819411 -38.30615567 30.4222996 -42.90112305 33.94995117 C-45.67524792 35.33782032 -47.0972272 34.94047437 -50 34 C-51.94921875 32.40625 -51.94921875 32.40625 -53.6875 30.5 C-56.0600452 27.87556365 -56.0600452 27.87556365 -59 26 C-54.35955076 15.7074396 -40.60452028 9.27750091 -30.6875 5.1875 C-20.65677605 1.58423023 -10.66203928 0 0 0 Z " fill="#000000" transform="translate(251,160)"/>
<path d="M0 0 C2.45703125 2.06640625 2.45703125 2.06640625 4.8125 4.5625 C5.60269531 5.38878906 6.39289063 6.21507812 7.20703125 7.06640625 C7.79871094 7.70449219 8.39039063 8.34257812 9 9 C-1.99069543 23.55524529 -21.65041442 31.06006216 -39.21875 33.6953125 C-42.85503356 34.09366941 -46.34644876 34.1405212 -50 34 C-50.12036664 28.22240116 -49.8320582 22.72040011 -49 17 C-48.23300781 16.88785156 -47.46601563 16.77570313 -46.67578125 16.66015625 C-38.70559452 15.24385129 -31.6175881 12.85603018 -24.1875 9.6875 C-22.88196167 9.13751343 -22.88196167 9.13751343 -21.55004883 8.57641602 C-16.25082388 6.25180589 -11.69384433 3.5777004 -7.09887695 0.05004883 C-4.31117359 -1.34461351 -2.91442359 -0.96770759 0 0 Z " fill="#000000" transform="translate(311,318)"/>
<path d="M0 0 C6.3483967 4.7936873 10.08023529 10.11783247 14 17 C14.53882813 17.94101563 15.07765625 18.88203125 15.6328125 19.8515625 C22.20592516 32.10595847 25 45.12199188 25 59 C19.39 58.67 13.78 58.34 8 58 C7.525625 55.6075 7.05125 53.215 6.5625 50.75 C4.98404681 43.60311472 2.57021151 37.04057103 -0.4375 30.375 C-0.99425415 29.13314941 -0.99425415 29.13314941 -1.56225586 27.86621094 C-3.36453443 24.00031751 -5.21832625 20.5924682 -7.84765625 17.2265625 C-10 14 -10 14 -10.09765625 11.36328125 C-8.68461952 8.32097796 -6.87321493 6.48599155 -4.4375 4.1875 C-3.61121094 3.39730469 -2.78492188 2.60710937 -1.93359375 1.79296875 C-1.29550781 1.20128906 -0.65742188 0.60960937 0 0 Z " fill="#000000" transform="translate(327,192)"/>
<path d="M0 0 C1.65625 1.64453125 1.65625 1.64453125 3.5 3.8125 C4.1084375 4.52019531 4.716875 5.22789062 5.34375 5.95703125 C7 8 7 8 9 11 C8.64095644 14.23139205 7.2145377 16.39452242 5.4375 19.0625 C-1.92705198 31.10549926 -6.6145836 44.13476718 -9 58 C-17.415 58.495 -17.415 58.495 -26 59 C-26 37.29140136 -18.21923491 17.66158137 -3.6640625 1.51171875 C-2 0 -2 0 0 0 Z " fill="#000000" transform="translate(186,192)"/>
<path d="M0 0 C1.21576916 19.85756287 -7.53013585 40.52728393 -20.4375 55.1875 C-21.61714139 56.46563137 -22.8016473 57.73939521 -24 59 C-32.37775061 52.15189487 -32.37775061 52.15189487 -35 48 C-34.60604498 44.06920435 -32.31948843 41.00189803 -30.3125 37.6875 C-23.51780458 26.0892623 -19.32940666 14.26127127 -17 1 C-11.29014022 0.25983299 -5.75813575 -0.10469338 0 0 Z " fill="#000000" transform="translate(352,261)"/>
<path d="M0 0 C5.61 0.33 11.22 0.66 17 1 C17.4640625 3.8153125 17.4640625 3.8153125 17.9375 6.6875 C19.37259275 13.39826705 21.62287172 19.50541944 24.3125 25.8125 C24.86248657 27.11803833 24.86248657 27.11803833 25.42358398 28.44995117 C27.74819411 33.74917612 30.4222996 38.30615567 33.94995117 42.90112305 C35.34461351 45.68882641 34.96770759 47.08557641 34 50 C31.93359375 52.45703125 31.93359375 52.45703125 29.4375 54.8125 C28.61121094 55.60269531 27.78492188 56.39289063 26.93359375 57.20703125 C26.29550781 57.79871094 25.65742188 58.39039063 25 59 C18.6516033 54.2063127 14.91976471 48.88216753 11 42 C10.46117187 41.05898438 9.92234375 40.11796875 9.3671875 39.1484375 C2.79407484 26.89404153 0 13.87800812 0 0 Z " fill="#000000" transform="translate(160,261)"/>
<path d="M0 0 C3.03873665 1.1156201 5.59877426 2.75501559 8.359375 4.4453125 C19.75095085 11.16635752 32.07372925 16.12822948 45.234375 17.8203125 C45.729375 26.2353125 45.729375 26.2353125 46.234375 34.8203125 C23.64857646 34.8203125 3.5830991 26.37924316 -12.765625 10.8203125 C-3.61980577 -0.36838731 -3.61980577 -0.36838731 0 0 Z " fill="#000000" transform="translate(204.765625,317.1796875)"/>
<path d="M0 0 C-0.14109986 2.10448938 -0.28804175 4.2085877 -0.4375 6.3125 C-0.51871094 7.48425781 -0.59992188 8.65601563 -0.68359375 9.86328125 C-1 13 -1 13 -2 16 C-4.23350214 17.29292303 -6.43288003 18.44093653 -8.75 19.5625 C-18.66814128 24.59549764 -27.2440176 31.00253096 -35 39 C-36.32 38.34 -37.64 37.68 -39 37 C-37.58356548 33.79700736 -35.85872218 31.63915798 -33.4375 29.125 C-29.95148591 25.28339978 -27.04171252 21.29136631 -24.25 16.9375 C-23.86183105 16.33470215 -23.47366211 15.7319043 -23.07373047 15.11083984 C-21.05809442 11.90840289 -19.42876106 8.77148977 -18.0625 5.25 C-16 2 -16 2 -13.75390625 1.078125 C-9.14496725 0.06456932 -4.7101474 -0.05492883 0 0 Z " fill="#000000" transform="translate(227,285)"/>
<path d="M0 0 C1.32 0.66 2.64 1.32 4 2 C2.50556894 5.46865314 0.49074274 7.73517344 -2.125 10.4375 C-8.40500842 17.28382157 -13.49210856 25.0178573 -16.875 33.6875 C-19.26603105 37.41469546 -19.76932744 37.60188413 -23.875 38.5 C-27.59321659 39.01285746 -31.24987669 39.04373322 -35 39 C-34.85890014 36.89551062 -34.71195825 34.7914123 -34.5625 32.6875 C-34.48128906 31.51574219 -34.40007812 30.34398437 -34.31640625 29.13671875 C-34 26 -34 26 -33 23 C-30.76649786 21.70707697 -28.56711997 20.55906347 -26.25 19.4375 C-16.33185872 14.40450236 -7.7559824 7.99746904 0 0 Z " fill="#000000" transform="translate(320,188)"/>
<path d="M0 0 C3.46865314 1.49443106 5.73517344 3.50925726 8.4375 6.125 C15.28382157 12.40500842 23.0178573 17.49210856 31.6875 20.875 C35.41469546 23.26603105 35.60188413 23.76932744 36.5 27.875 C37.01285746 31.59321659 37.04373322 35.24987669 37 39 C34.89551062 38.85890014 32.7914123 38.71195825 30.6875 38.5625 C29.51574219 38.48128906 28.34398437 38.40007812 27.13671875 38.31640625 C24 38 24 38 21 37 C19.70707697 34.76649786 18.55906347 32.56711997 17.4375 30.25 C12.40450236 20.33185872 5.99746904 11.7559824 -2 4 C-1.34 2.68 -0.68 1.36 0 0 Z " fill="#000000" transform="translate(190,188)"/>
<path d="M0 0 C2.10448938 0.14109986 4.2085877 0.28804175 6.3125 0.4375 C7.48425781 0.51871094 8.65601563 0.59992188 9.86328125 0.68359375 C13 1 13 1 16 2 C17.29292303 4.23350214 18.44093653 6.43288003 19.5625 8.75 C24.59549764 18.66814128 31.00253096 27.2440176 39 35 C38.34 36.32 37.68 37.64 37 39 C33.53134686 37.50556894 31.26482656 35.49074274 28.5625 32.875 C21.71617843 26.59499158 13.9821427 21.50789144 5.3125 18.125 C1.58530454 15.73396895 1.39811587 15.23067256 0.5 11.125 C-0.01285746 7.40678341 -0.04373322 3.75012331 0 0 Z " fill="#000000" transform="translate(285,285)"/>
<path d="M0 0 C3.4788164 1.43245381 5.17737401 3.10931588 7.3125 6.1875 C7.84488281 6.92355469 8.37726563 7.65960938 8.92578125 8.41796875 C11.02013011 13.45202184 8.89505062 18.65638993 7.59082031 23.74829102 C5.11276864 33.43032747 3.88374846 43.0578298 3 53 C1.68 53 0.36 53 -1 53 C-1.10489746 52.01942627 -1.10489746 52.01942627 -1.21191406 51.01904297 C-2.99056633 34.14821341 -2.99056633 34.14821341 -7.328125 17.8046875 C-8.13765436 14.4253731 -7.94557545 12.33836967 -7 9 C-5.37109375 6.4453125 -5.37109375 6.4453125 -3.4375 4.125 C-2.79683594 3.34382813 -2.15617188 2.56265625 -1.49609375 1.7578125 C-1.00238281 1.17773438 -0.50867188 0.59765625 0 0 Z " fill="#000000" transform="translate(255,297)"/>
<path d="M0 0 C9.68203646 2.47805167 19.30953878 3.70707185 29.25170898 4.59082031 C29.25170898 5.91082031 29.25170898 7.23082031 29.25170898 8.59082031 C28.59799316 8.66075195 27.94427734 8.73068359 27.27075195 8.80273438 C10.39992239 10.58138665 10.39992239 10.58138665 -5.94360352 14.91894531 C-9.32291792 15.72847467 -11.40992135 15.53639576 -14.74829102 14.59082031 C-17.30297852 12.96191406 -17.30297852 12.96191406 -19.62329102 11.02832031 C-20.40446289 10.38765625 -21.18563477 9.74699219 -21.99047852 9.08691406 C-22.57055664 8.59320313 -23.15063477 8.09949219 -23.74829102 7.59082031 C-22.3158372 4.11200391 -20.63897514 2.4134463 -17.56079102 0.27832031 C-16.82473633 -0.2540625 -16.08868164 -0.78644531 -15.33032227 -1.33496094 C-10.29626918 -3.4293098 -5.09190108 -1.30423031 0 0 Z " fill="#000000" transform="translate(320.748291015625,249.4091796875)"/>
<path d="M0 0 C2.5546875 1.62890625 2.5546875 1.62890625 4.875 3.5625 C6.04675781 4.52349609 6.04675781 4.52349609 7.2421875 5.50390625 C7.82226562 5.99761719 8.40234375 6.49132812 9 7 C7.56754619 10.4788164 5.89068412 12.17737401 2.8125 14.3125 C1.70841797 15.11107422 1.70841797 15.11107422 0.58203125 15.92578125 C-4.45202184 18.02013011 -9.65638993 15.89505062 -14.74829102 14.59082031 C-24.43032747 12.11276864 -34.0578298 10.88374846 -44 10 C-44 8.68 -44 7.36 -44 6 C-43.34628418 5.93006836 -42.69256836 5.86013672 -42.01904297 5.78808594 C-25.14821341 4.00943367 -25.14821341 4.00943367 -8.8046875 -0.328125 C-5.4253731 -1.13765436 -3.33836967 -0.94557545 0 0 Z " fill="#000000" transform="translate(206,248)"/>
<path d="M0 0 C1.32 0 2.64 0 4 0 C4.06993164 0.65371582 4.13986328 1.30743164 4.21191406 1.98095703 C5.99056633 18.85178659 5.99056633 18.85178659 10.328125 35.1953125 C11.13765436 38.5746269 10.94557545 40.66163033 10 44 C8.37109375 46.5546875 8.37109375 46.5546875 6.4375 48.875 C5.79683594 49.65617187 5.15617187 50.43734375 4.49609375 51.2421875 C4.00238281 51.82226562 3.50867188 52.40234375 3 53 C-0.4788164 51.56754619 -2.17737401 49.89068412 -4.3125 46.8125 C-4.84488281 46.07644531 -5.37726563 45.34039062 -5.92578125 44.58203125 C-8.02013011 39.54797816 -5.89505062 34.34361007 -4.59082031 29.25170898 C-2.11276864 19.56967253 -0.88374846 9.9421702 0 0 Z " fill="#000000" transform="translate(254,162)"/>
<path d="M0 0 C3.33583707 2.23313833 5.72119236 4.75565496 7.3515625 8.44140625 C7.80854177 13.57819176 4.24267526 17.68915345 1.5625 21.8125 C-4.0475 21.8125 -9.6575 21.8125 -15.4375 21.8125 C-15.4375 15.8725 -15.4375 9.9325 -15.4375 3.8125 C-4.72321429 -2.08035714 -4.72321429 -2.08035714 0 0 Z " fill="#000000" transform="translate(390.4375,115.1875)"/>
<path d="M0 0 C0 5.94 0 11.88 0 18 C-5.61 18 -11.22 18 -17 18 C-23.31028262 7.52254961 -23.31028262 7.52254961 -22.49609375 3.52734375 C-20.58704372 0.32564543 -18.19327965 -1.8255769 -15.4375 -4.3125 C-9.59809738 -5.48038052 -5.26492974 -2.51546643 0 0 Z " fill="#000000" transform="translate(137,119)"/>
<path d="M0 0 C5.61 0 11.22 0 17 0 C17 5.61 17 11.22 17 17 C6.54988778 23.29381759 6.54988778 23.29381759 2.52734375 22.53125 C-0.95238108 20.50195253 -2.94118675 18.07738586 -5.375 14.875 C-6.37556107 8.67152136 -3.28635374 5.21950299 0 0 Z " fill="#000000" transform="translate(120,375)"/>
<path d="M0 0 C1.48831242 0.00667405 2.97660807 0.01863442 4.46484375 0.03515625 C5.22345703 0.03966797 5.98207031 0.04417969 6.76367188 0.04882812 C8.64326246 0.06064945 10.52281274 0.07858547 12.40234375 0.09765625 C18.77478965 10.13300412 18.77478965 10.13300412 17.93359375 14.5703125 C15.90429628 18.05003733 13.47972961 20.038843 10.27734375 22.47265625 C4.25416624 23.44413649 0.33899632 20.33817141 -4.59765625 17.09765625 C-4.62450304 14.45175611 -4.64441982 11.80612529 -4.66015625 9.16015625 C-4.66853516 8.40541016 -4.67691406 7.65066406 -4.68554688 6.87304688 C-4.69418066 4.94771312 -4.64989958 3.02230044 -4.59765625 1.09765625 C-3.59765625 0.09765625 -3.59765625 0.09765625 0 0 Z " fill="#000000" transform="translate(379.59765625,374.90234375)"/>
<path d="M0 0 C3.68069887 1.53643852 5.98775204 3.78150945 8.75 6.625 C9.54921875 7.44226563 10.3484375 8.25953125 11.171875 9.1015625 C11.77515625 9.72804688 12.3784375 10.35453125 13 11 C12.52343588 12.79236067 12.04366502 14.58386897 11.5625 16.375 C11.29566406 17.37273437 11.02882813 18.37046875 10.75390625 19.3984375 C10 22 10 22 9 24 C3.30941584 26.57431188 -1.1916538 25.9361154 -7 24 C-8.23828125 21.63671875 -8.23828125 21.63671875 -9.3125 18.6875 C-9.67988281 17.72199219 -10.04726562 16.75648438 -10.42578125 15.76171875 C-11 13 -11 13 -10.39453125 10.94140625 C-8.60358307 8.44812546 -6.57653537 6.38863436 -4.375 4.25 C-3.55773437 3.45078125 -2.74046875 2.6515625 -1.8984375 1.828125 C-0.95871094 0.92320312 -0.95871094 0.92320312 0 0 Z " fill="#000000" transform="translate(255,425)"/>
<path d="M0 0 C2.49328079 1.79094818 4.55277189 3.81799588 6.69140625 6.01953125 C7.490625 6.83679688 8.28984375 7.6540625 9.11328125 8.49609375 C9.7165625 9.12257812 10.31984375 9.7490625 10.94140625 10.39453125 C9.40496773 14.07523012 7.1598968 16.38228329 4.31640625 19.14453125 C3.49914062 19.94375 2.681875 20.74296875 1.83984375 21.56640625 C1.21335937 22.1696875 0.586875 22.77296875 -0.05859375 23.39453125 C-1.85095442 22.91796713 -3.64246272 22.43819627 -5.43359375 21.95703125 C-6.43132812 21.69019531 -7.4290625 21.42335938 -8.45703125 21.1484375 C-11.05859375 20.39453125 -11.05859375 20.39453125 -13.05859375 19.39453125 C-15.63290563 13.70394709 -14.99470915 9.20287745 -13.05859375 3.39453125 C-10.6953125 2.15625 -10.6953125 2.15625 -7.74609375 1.08203125 C-6.78058594 0.71464844 -5.81507812 0.34726563 -4.8203125 -0.03125 C-2.05859375 -0.60546875 -2.05859375 -0.60546875 0 0 Z " fill="#000000" transform="translate(76.05859375,244.60546875)"/>
<path d="M0 0 C1.79236067 0.47656412 3.58386897 0.95633498 5.375 1.4375 C6.37273437 1.70433594 7.37046875 1.97117188 8.3984375 2.24609375 C11 3 11 3 13 4 C15.57431188 9.69058416 14.9361154 14.1916538 13 20 C10.63671875 21.23828125 10.63671875 21.23828125 7.6875 22.3125 C6.72199219 22.67988281 5.75648438 23.04726563 4.76171875 23.42578125 C2 24 2 24 -0.05859375 23.39453125 C-2.55187454 21.60358307 -4.61136564 19.57653537 -6.75 17.375 C-7.54921875 16.55773437 -8.3484375 15.74046875 -9.171875 14.8984375 C-9.77515625 14.27195312 -10.3784375 13.64546875 -11 13 C-9.46356148 9.31930113 -7.21849055 7.01224796 -4.375 4.25 C-3.55773437 3.45078125 -2.74046875 2.6515625 -1.8984375 1.828125 C-0.95871094 0.92320312 -0.95871094 0.92320312 0 0 Z " fill="#000000" transform="translate(436,244)"/>
<path d="M0 0 C2.8704643 1.61828394 3.84284581 2.5948002 5.046875 5.69921875 C5.69791667 8.46614583 6.34895833 11.23307292 7 14 C3.37 17.63 -0.26 21.26 -4 25 C-7.84281736 23.07859132 -9.80431927 21.4073184 -12.75 18.375 C-13.54921875 17.55773437 -14.3484375 16.74046875 -15.171875 15.8984375 C-15.77515625 15.27195312 -16.3784375 14.64546875 -17 14 C-16.60217121 12.22483971 -16.18096339 10.45490837 -15.75 8.6875 C-15.51796875 7.70136719 -15.2859375 6.71523437 -15.046875 5.69921875 C-13.84598949 2.60290575 -12.83678546 1.64768178 -10 0 C-6.2195649 -1.26014503 -3.87795389 -0.81641135 0 0 Z " fill="#000000" transform="translate(261,62)"/>
</svg>
