<svg xmlns="http://www.w3.org/2000/svg" viewBox="0 0 900 620" role="img" aria-label="写作语气封面">
  <defs>
    <linearGradient id="bg" x1="0" y1="0" x2="1" y2="1">
      <stop offset="0" stop-color="#5b3512"/>
      <stop offset=".55" stop-color="#2c1808"/>
      <stop offset="1" stop-color="#0b0703"/>
    </linearGradient>
    <linearGradient id="paper" x1="0" y1="0" x2="1" y2="1">
      <stop offset="0" stop-color="#fff0d3" stop-opacity=".22"/>
      <stop offset="1" stop-color="#fff0d3" stop-opacity=".08"/>
    </linearGradient>
  </defs>
  <rect width="900" height="620" fill="url(#bg)"/>
  <g transform="translate(142 92) rotate(-3)">
    <rect width="390" height="420" rx="28" fill="url(#paper)" stroke="#ffe1a3" stroke-opacity=".18"/>
    <path d="M64 86h240M64 128h286M64 170h210M64 252h270M64 294h190" stroke="#fff2d2" stroke-opacity=".32" stroke-width="13" stroke-linecap="round"/>
    <path d="M74 354c52-34 90 18 128-8s54-54 104-24" fill="none" stroke="#ffcf72" stroke-opacity=".62" stroke-width="5"/>
  </g>
  <g transform="translate(565 160)" opacity=".62">
    <rect width="218" height="260" rx="28" fill="#ffffff" opacity=".08"/>
    <circle cx="58" cy="62" r="18" fill="#ffcf72"/>
    <path d="M44 126h130M44 164h104M44 202h146" stroke="#fff" stroke-opacity=".22" stroke-width="10" stroke-linecap="round"/>
  </g>
</svg>
