<svg xmlns="http://www.w3.org/2000/svg" viewBox="0 0 900 620" role="img" aria-label="阅读地图封面">
  <defs>
    <linearGradient id="bg" x1="0" y1="0" x2="1" y2="1">
      <stop offset="0" stop-color="#312f70"/>
      <stop offset=".58" stop-color="#171735"/>
      <stop offset="1" stop-color="#070713"/>
    </linearGradient>
  </defs>
  <rect width="900" height="620" fill="url(#bg)"/>
  <g stroke="#a6c4ff" stroke-opacity=".24" stroke-width="1">
    <path d="M100 180h700M100 310h700M100 440h700"/>
    <path d="M220 96v430M450 96v430M680 96v430"/>
  </g>
  <path d="M134 442C214 308 316 346 386 248s154-94 230-8 78 144 162 80" fill="none" stroke="#9d7bff" stroke-width="8" stroke-linecap="round" opacity=".74"/>
  <path d="M134 442C272 454 342 396 440 394s168 64 306-18" fill="none" stroke="#6ea8ff" stroke-width="4" stroke-linecap="round" opacity=".54"/>
  <g fill="#fff">
    <circle cx="134" cy="442" r="14"/><circle cx="386" cy="248" r="14"/><circle cx="616" cy="240" r="14"/><circle cx="778" cy="320" r="14"/>
    <circle cx="440" cy="394" r="10" opacity=".55"/><circle cx="746" cy="376" r="10" opacity=".55"/>
  </g>
  <g fill="#fff" opacity=".45">
    <circle cx="168" cy="112" r="2"/><circle cx="286" cy="158" r="2"/><circle cx="704" cy="122" r="3"/><circle cx="804" cy="476" r="2"/><circle cx="512" cy="516" r="2"/>
  </g>
</svg>
