<svg xmlns="http://www.w3.org/2000/svg" viewBox="0 0 1200 820" role="img" aria-label="主题档案馆封面">
  <defs>
    <linearGradient id="bg" x1="0" y1="0" x2="1" y2="1">
      <stop offset="0" stop-color="#26436f"/>
      <stop offset="0.55" stop-color="#111d34"/>
      <stop offset="1" stop-color="#050913"/>
    </linearGradient>
    <radialGradient id="lamp" cx="30%" cy="18%" r="55%">
      <stop offset="0" stop-color="#7db3ff" stop-opacity=".55"/>
      <stop offset=".52" stop-color="#7db3ff" stop-opacity=".08"/>
      <stop offset="1" stop-color="#7db3ff" stop-opacity="0"/>
    </radialGradient>
    <filter id="soft" x="-20%" y="-20%" width="140%" height="140%">
      <feGaussianBlur stdDeviation="16"/>
    </filter>
  </defs>
  <rect width="1200" height="820" fill="url(#bg)"/>
  <rect width="1200" height="820" fill="url(#lamp)"/>
  <g opacity=".42" stroke="#d8e7ff" stroke-width="1">
    <path d="M94 168h1012M94 302h1012M94 436h1012M94 570h1012" opacity=".18"/>
    <path d="M190 94v620M362 94v620M534 94v620M706 94v620M878 94v620M1050 94v620" opacity=".12"/>
  </g>
  <g transform="translate(120 185)">
    <rect x="0" y="0" width="255" height="365" rx="18" fill="#e8f0ff" opacity=".12"/>
    <rect x="36" y="54" width="164" height="18" rx="9" fill="#9bc3ff" opacity=".65"/>
    <rect x="36" y="96" width="112" height="10" rx="5" fill="#fff" opacity=".28"/>
    <rect x="36" y="124" width="172" height="10" rx="5" fill="#fff" opacity=".18"/>
    <rect x="36" y="248" width="188" height="54" rx="12" fill="#0b1529" opacity=".5"/>
  </g>
  <g transform="translate(420 128)" opacity=".92">
    <rect x="0" y="0" width="310" height="440" rx="24" fill="#101d35" stroke="#b9d4ff" stroke-opacity=".2"/>
    <circle cx="62" cy="80" r="24" fill="#78a9ff" opacity=".7"/>
    <path d="M58 147h187M58 184h136M58 221h210" stroke="#f3f7ff" stroke-opacity=".28" stroke-width="12" stroke-linecap="round"/>
    <path d="M74 304c92-78 129 68 210-18" fill="none" stroke="#61e6d2" stroke-width="4" stroke-opacity=".8"/>
  </g>
  <g transform="translate(790 210)">
    <rect width="285" height="210" rx="22" fill="#ffffff" opacity=".09"/>
    <path d="M44 64h198M44 104h138M44 144h172" stroke="#fff" stroke-opacity=".25" stroke-width="10" stroke-linecap="round"/>
  </g>
  <circle cx="870" cy="112" r="92" fill="#65d8ff" opacity=".18" filter="url(#soft)"/>
  <circle cx="980" cy="628" r="128" fill="#9476ff" opacity=".18" filter="url(#soft)"/>
  <g opacity=".38" fill="#fff">
    <circle cx="100" cy="88" r="2"/><circle cx="1048" cy="122" r="2"/><circle cx="1116" cy="620" r="3"/>
    <circle cx="602" cy="692" r="2"/><circle cx="318" cy="704" r="2"/><circle cx="1002" cy="382" r="2"/>
  </g>
</svg>
