<svg xmlns="http://www.w3.org/2000/svg" viewBox="0 0 900 620" role="img" aria-label="视觉语言封面">
  <defs>
    <linearGradient id="bg" x1="0" y1="0" x2="1" y2="1">
      <stop offset="0" stop-color="#563178"/>
      <stop offset=".62" stop-color="#241337"/>
      <stop offset="1" stop-color="#090612"/>
    </linearGradient>
    <filter id="blur"><feGaussianBlur stdDeviation="14"/></filter>
  </defs>
  <rect width="900" height="620" fill="url(#bg)"/>
  <circle cx="160" cy="128" r="128" fill="#9e7bff" opacity=".28" filter="url(#blur)"/>
  <circle cx="732" cy="486" r="156" fill="#ff7eb0" opacity=".12" filter="url(#blur)"/>
  <g transform="translate(96 92)" opacity=".9">
    <rect width="230" height="318" rx="24" fill="#f8f4ff" opacity=".13"/>
    <rect x="34" y="42" width="88" height="88" rx="20" fill="#b18cff" opacity=".78"/>
    <rect x="136" y="42" width="48" height="88" rx="16" fill="#6ea8ff" opacity=".78"/>
    <path d="M36 176h148M36 210h112M36 244h164" stroke="#fff" stroke-opacity=".28" stroke-width="12" stroke-linecap="round"/>
  </g>
  <g transform="translate(390 112)">
    <rect width="392" height="246" rx="28" fill="#ffffff" opacity=".08" stroke="#fff" stroke-opacity=".12"/>
    <path d="M58 70c68 58 126-44 194 0s82 82 134 26" fill="none" stroke="#65e7d4" stroke-width="6" stroke-opacity=".72"/>
    <path d="M58 148h260M58 190h174" stroke="#f7f0ff" stroke-width="14" stroke-linecap="round" stroke-opacity=".26"/>
  </g>
  <g transform="translate(470 410)" opacity=".82">
    <rect width="98" height="98" rx="20" fill="#fff" opacity=".12"/>
    <rect x="124" width="98" height="98" rx="20" fill="#fff" opacity=".08"/>
    <rect x="248" width="98" height="98" rx="20" fill="#fff" opacity=".1"/>
  </g>
</svg>
