<svg xmlns="http://www.w3.org/2000/svg" viewBox="0 0 900 620" role="img" aria-label="内容索引封面">
  <defs>
    <linearGradient id="bg" x1="0" y1="0" x2="1" y2="1">
      <stop offset="0" stop-color="#15463f"/>
      <stop offset=".64" stop-color="#0b2725"/>
      <stop offset="1" stop-color="#03100f"/>
    </linearGradient>
  </defs>
  <rect width="900" height="620" fill="url(#bg)"/>
  <g opacity=".2" stroke="#d7fff7" stroke-width="1">
    <path d="M80 108h740M80 228h740M80 348h740M80 468h740"/>
    <path d="M170 70v500M330 70v500M490 70v500M650 70v500"/>
  </g>
  <g fill="none" stroke-linecap="round" stroke-linejoin="round">
    <path d="M146 430C244 278 328 364 430 232S612 116 748 188" stroke="#54e6c8" stroke-width="8" opacity=".72"/>
    <path d="M142 426C250 356 326 430 438 340S610 286 754 336" stroke="#8bb8ff" stroke-width="4" opacity=".44"/>
  </g>
  <g fill="#f8ffff">
    <circle cx="146" cy="430" r="13" opacity=".75"/>
    <circle cx="430" cy="232" r="13" opacity=".75"/>
    <circle cx="748" cy="188" r="13" opacity=".75"/>
    <circle cx="438" cy="340" r="10" opacity=".45"/>
    <circle cx="754" cy="336" r="10" opacity=".45"/>
  </g>
  <g transform="translate(104 112)" fill="#ffffff" opacity=".12">
    <rect width="164" height="72" rx="18"/>
    <rect x="536" y="330" width="188" height="88" rx="22"/>
    <rect x="310" y="84" width="132" height="62" rx="16"/>
  </g>
</svg>
