<svg width="960" height="720" viewBox="0 0 960 720" fill="none" xmlns="http://www.w3.org/2000/svg">
  <rect width="960" height="720" fill="#07111F"/>
  <rect x="118" y="96" width="724" height="528" rx="44" fill="url(#panel)" stroke="#D9E6FF" stroke-opacity=".16"/>
  <path d="M168 174H792" stroke="#C9D7FF" stroke-opacity=".16" stroke-width="2"/>
  <circle cx="204" cy="146" r="10" fill="#6EA8FF"/>
  <circle cx="238" cy="146" r="10" fill="#54E6C8"/>
  <circle cx="272" cy="146" r="10" fill="#FFB86B"/>
  <path d="M238 498C302 410 376 366 460 366C544 366 614 324 670 240" stroke="#6EA8FF" stroke-width="8" stroke-linecap="round"/>
  <path d="M238 520C330 472 422 458 514 478C606 498 674 458 718 358" stroke="#54E6C8" stroke-width="5" stroke-linecap="round" stroke-opacity=".72"/>
  <rect x="218" y="232" width="170" height="104" rx="22" fill="#EAF1FF" fill-opacity=".12" stroke="#EAF1FF" stroke-opacity=".15"/>
  <rect x="430" y="214" width="276" height="128" rx="26" fill="#EAF1FF" fill-opacity=".08" stroke="#EAF1FF" stroke-opacity=".12"/>
  <rect x="218" y="390" width="230" height="84" rx="22" fill="#54E6C8" fill-opacity=".14" stroke="#54E6C8" stroke-opacity=".18"/>
  <rect x="504" y="408" width="218" height="104" rx="24" fill="#6EA8FF" fill-opacity=".12" stroke="#6EA8FF" stroke-opacity=".18"/>
  <path d="M250 284H356M462 266H666M462 302H616M250 432H398M536 456H688" stroke="#F8FAFF" stroke-opacity=".5" stroke-width="10" stroke-linecap="round"/>
  <circle cx="718" cy="358" r="18" fill="#F8FAFF"/>
  <circle cx="718" cy="358" r="32" stroke="#F8FAFF" stroke-opacity=".18" stroke-width="2"/>
  <defs>
    <linearGradient id="panel" x1="132" y1="88" x2="804" y2="626" gradientUnits="userSpaceOnUse">
      <stop stop-color="#233B61"/>
      <stop offset=".55" stop-color="#11213B"/>
      <stop offset="1" stop-color="#0A1222"/>
    </linearGradient>
  </defs>
</svg>
