<svg xmlns="http://www.w3.org/2000/svg" viewBox="0 0 900 1120" role="img" aria-label="内容索引作品海报">
  <defs><linearGradient id="bg" x1="0" y1="0" x2="1" y2="1"><stop offset="0" stop-color="#7447aa"/><stop offset=".58" stop-color="#2c164d"/><stop offset="1" stop-color="#0d0619"/></linearGradient></defs>
  <rect width="900" height="1120" fill="url(#bg)"/>
  <g opacity=".16" stroke="#ffffff" stroke-width="1">
    <path d="M120 170h660M120 330h660M120 490h660M120 650h660"/>
    <path d="M250 120v690M450 120v690M650 120v690"/>
  </g>
  <path d="M140 720C230 512 354 566 452 370s212-150 310-22" fill="none" stroke="#c4a7ff" stroke-width="10" stroke-linecap="round" opacity=".68"/>
  <path d="M180 826c118-104 198-6 292-86s154-132 248-84" fill="none" stroke="#62e6d0" stroke-width="5" stroke-linecap="round" opacity=".52"/>
  <g fill="#fff">
    <circle cx="140" cy="720" r="18"/><circle cx="452" cy="370" r="18"/><circle cx="762" cy="348" r="18"/>
    <circle cx="472" cy="740" r="12" opacity=".56"/><circle cx="720" cy="656" r="12" opacity=".56"/>
  </g>
</svg>
